<svg xmlns="http://www.w3.org/2000/svg" xmlns:xlink="http://www.w3.org/1999/xlink" width="500" zoomAndPan="magnify" viewBox="0 0 375 374.999991" height="500" preserveAspectRatio="xMidYMid meet" version="1.0"><defs><g/><clipPath id="a465545414"><path d="M 89.304688 112.132812 L 210 112.132812 L 210 261 L 89.304688 261 Z M 89.304688 112.132812 " clip-rule="nonzero"/></clipPath><clipPath id="b0870261fa"><path d="M 181 116 L 285.804688 116 L 285.804688 256 L 181 256 Z M 181 116 " clip-rule="nonzero"/></clipPath></defs><g clip-path="url(#a465545414)"><path fill="#ff6b35" d="M 198.585938 210.03125 L 181.988281 194.355469 C 181.988281 194.355469 193.554688 165.601562 198.585938 156.605469 C 200.738281 152.757812 203.308594 147.679688 204.789062 142.070312 C 204.921875 142.09375 205.058594 142.105469 205.195312 142.105469 C 207.363281 142.105469 209.117188 138.957031 209.117188 135.070312 C 209.117188 132.148438 208.128906 129.644531 206.714844 128.582031 C 206.714844 128.582031 204.75 130.027344 204.621094 132.863281 C 204.621094 132.863281 204.082031 129.777344 206.550781 127.125 C 206.132812 124.015625 205.375 122.1875 203.515625 119.941406 C 200.214844 115.957031 195.164062 114.625 187.496094 114.273438 C 180.304688 113.941406 175.121094 113.089844 169.035156 112.429688 C 166.9375 112.203125 167.835938 116.226562 168.394531 117.199219 C 169.527344 119.164062 171.136719 119.8125 176.863281 121.496094 C 176.863281 121.496094 172.277344 121.492188 167.59375 118.859375 C 166.53125 120.777344 165.945312 123.296875 165.742188 126.160156 C 169.496094 130.035156 168.691406 134.632812 168.691406 134.632812 C 168.503906 130.527344 165.664062 128.433594 165.664062 128.433594 C 164.136719 129.394531 163.042969 132.003906 163.042969 135.070312 C 163.042969 138.957031 164.796875 142.105469 166.964844 142.105469 C 167.171875 142.105469 167.375 142.074219 167.574219 142.023438 C 169.265625 148.457031 171.925781 154.488281 174.886719 158.058594 C 173.316406 159.574219 171.820312 161.023438 170.421875 162.109375 C 179.230469 161.703125 186.078125 167.792969 186.078125 167.792969 C 186.078125 167.792969 173.894531 160.382812 164.457031 165.835938 C 151.382812 173.386719 137.199219 167.792969 137.199219 167.792969 C 137.199219 167.792969 150.011719 170.101562 163.585938 163.796875 C 163.875 163.660156 164.167969 163.535156 164.457031 163.421875 C 157.34375 160.679688 150.75 156.570312 133.574219 164.902344 C 133.574219 164.902344 129.121094 166.773438 126.574219 170.71875 C 126.574219 170.71875 127.273438 167.125 131.15625 163.890625 C 127.75 162.683594 121.335938 161.222656 115.8125 164.574219 C 115.8125 164.574219 111.359375 166.449219 108.8125 170.394531 C 108.8125 170.394531 110.746094 165.597656 116.15625 162.105469 C 116.96875 157.226562 119.503906 146.238281 126.457031 139.496094 C 126.777344 139.179688 127.074219 138.90625 127.355469 138.667969 C 125.121094 139.085938 123.3125 139.972656 123.3125 139.972656 C 126.9375 136.613281 130.183594 137.964844 132.550781 137.761719 C 135.351562 137.519531 138.707031 138.949219 140.421875 138.699219 C 142.714844 138.363281 146.324219 137.964844 147.214844 137.472656 C 149.683594 136.09375 147.992188 133.265625 146.046875 133.175781 C 143.519531 133.0625 150.710938 133.253906 150.511719 130.347656 C 150.203125 125.847656 150.710938 124.417969 149.386719 122.648438 C 148.789062 121.855469 142.722656 116.347656 140.867188 116.351562 C 135.832031 116.367188 128.15625 121.066406 124.03125 122.925781 C 120.542969 124.496094 118.941406 127.660156 117.402344 130.171875 C 114.46875 134.960938 89.308594 166.285156 89.566406 175.773438 C 89.84375 186.089844 110.246094 196.71875 130.925781 189.824219 C 130.925781 189.824219 135.839844 187.542969 138.578125 185.511719 C 138.578125 185.511719 135.625 188.933594 131.988281 191.199219 C 133.152344 192.679688 134.542969 194.605469 136.082031 196.835938 C 140.996094 202.996094 150.054688 212.625 161.738281 217.402344 C 161.738281 217.402344 155.472656 216.621094 146.792969 213.15625 C 148.75 216.222656 150.71875 219.332031 152.617188 222.332031 C 154.953125 226.015625 157.972656 229.230469 161.542969 231.738281 C 164.597656 233.890625 167.949219 235.820312 171.546875 237.292969 C 171.546875 237.292969 167.035156 236.730469 160.363281 234.445312 C 162.390625 237.554688 164.089844 240.074219 165.28125 241.652344 C 168.214844 245.554688 173.035156 249.199219 171.738281 260.679688 L 198.585938 210.03125 " fill-opacity="1" fill-rule="nonzero"/></g><g clip-path="url(#b0870261fa)"><path fill="#322f30" d="M 257.589844 130.171875 C 256.050781 127.660156 254.445312 124.496094 250.960938 122.925781 C 246.835938 121.066406 239.15625 116.367188 234.125 116.351562 C 232.269531 116.347656 226.203125 121.855469 225.605469 122.648438 C 224.28125 124.417969 224.789062 125.847656 224.480469 130.347656 C 224.28125 133.253906 231.46875 133.0625 228.941406 133.175781 C 226.996094 133.265625 225.304688 136.09375 227.777344 137.472656 C 228.667969 137.964844 232.277344 138.363281 234.570312 138.699219 C 236.28125 138.949219 239.640625 137.519531 242.441406 137.761719 C 244.808594 137.964844 248.054688 136.613281 251.675781 139.972656 C 251.675781 139.972656 249.871094 139.085938 247.632812 138.667969 C 247.914062 138.90625 248.210938 139.179688 248.535156 139.496094 C 255.488281 146.238281 258.019531 157.226562 258.835938 162.105469 C 264.246094 165.597656 266.179688 170.394531 266.179688 170.394531 C 263.632812 166.449219 259.175781 164.574219 259.175781 164.574219 C 253.65625 161.222656 247.242188 162.683594 243.835938 163.890625 C 247.71875 167.125 248.414062 170.71875 248.414062 170.71875 C 245.867188 166.773438 241.414062 164.902344 241.414062 164.902344 C 233.742188 161.179688 228.183594 159.941406 223.742188 159.953125 L 220.320312 166.011719 C 231.546875 169.484375 240.945312 167.792969 240.945312 167.792969 C 240.945312 167.792969 230.367188 171.960938 219.0625 168.238281 L 205.347656 192.511719 L 219.796875 206.34375 L 181.320312 249.964844 C 181.320312 249.964844 209.9375 262.808594 229.550781 250.667969 C 216.382812 238.617188 215.078125 232.679688 216.941406 226.011719 C 219.46875 216.96875 234.964844 193.0625 234.964844 193.0625 C 255.648438 199.953125 285.148438 186.089844 285.425781 175.773438 C 285.683594 166.285156 260.523438 134.960938 257.589844 130.171875 " fill-opacity="1" fill-rule="nonzero"/></g><g fill="#ffffff" fill-opacity="1"><g transform="translate(114.855465, 277.765235)"><g><path d="M 5.09375 0 L 3.765625 0 L 3.765625 -10.25 L 0.140625 -10.25 L 0.140625 -11.421875 L 8.703125 -11.421875 L 8.703125 -10.25 L 5.09375 -10.25 Z M 5.09375 0 "/></g></g></g><g fill="#ffffff" fill-opacity="1"><g transform="translate(123.704872, 277.765235)"><g><path d="M 5 0.15625 C 3.726562 0.15625 2.726562 -0.226562 2 -1 C 1.269531 -1.769531 0.90625 -2.84375 0.90625 -4.21875 C 0.90625 -5.59375 1.242188 -6.6875 1.921875 -7.5 C 2.597656 -8.3125 3.507812 -8.71875 4.65625 -8.71875 C 5.726562 -8.71875 6.578125 -8.363281 7.203125 -7.65625 C 7.828125 -6.957031 8.140625 -6.03125 8.140625 -4.875 L 8.140625 -4.046875 L 2.25 -4.046875 C 2.269531 -3.046875 2.519531 -2.285156 3 -1.765625 C 3.488281 -1.242188 4.171875 -0.984375 5.046875 -0.984375 C 5.960938 -0.984375 6.875 -1.175781 7.78125 -1.5625 L 7.78125 -0.40625 C 7.320312 -0.207031 6.882812 -0.0664062 6.46875 0.015625 C 6.0625 0.109375 5.570312 0.15625 5 0.15625 Z M 4.640625 -7.640625 C 3.953125 -7.640625 3.40625 -7.414062 3 -6.96875 C 2.59375 -6.519531 2.351562 -5.898438 2.28125 -5.109375 L 6.75 -5.109375 C 6.75 -5.921875 6.566406 -6.546875 6.203125 -6.984375 C 5.835938 -7.421875 5.316406 -7.640625 4.640625 -7.640625 Z M 4.640625 -7.640625 "/></g></g></g><g fill="#ffffff" fill-opacity="1"><g transform="translate(132.679248, 277.765235)"><g><path d="M 6.90625 -2.34375 C 6.90625 -1.539062 6.609375 -0.921875 6.015625 -0.484375 C 5.421875 -0.0546875 4.585938 0.15625 3.515625 0.15625 C 2.378906 0.15625 1.492188 -0.0234375 0.859375 -0.390625 L 0.859375 -1.59375 C 1.265625 -1.382812 1.703125 -1.21875 2.171875 -1.09375 C 2.648438 -0.976562 3.109375 -0.921875 3.546875 -0.921875 C 4.222656 -0.921875 4.742188 -1.023438 5.109375 -1.234375 C 5.472656 -1.453125 5.65625 -1.785156 5.65625 -2.234375 C 5.65625 -2.566406 5.507812 -2.847656 5.21875 -3.078125 C 4.925781 -3.316406 4.363281 -3.597656 3.53125 -3.921875 C 2.726562 -4.222656 2.160156 -4.484375 1.828125 -4.703125 C 1.492188 -4.921875 1.242188 -5.171875 1.078125 -5.453125 C 0.910156 -5.734375 0.828125 -6.070312 0.828125 -6.46875 C 0.828125 -7.164062 1.109375 -7.710938 1.671875 -8.109375 C 2.242188 -8.515625 3.023438 -8.71875 4.015625 -8.71875 C 4.941406 -8.71875 5.84375 -8.53125 6.71875 -8.15625 L 6.265625 -7.109375 C 5.398438 -7.460938 4.617188 -7.640625 3.921875 -7.640625 C 3.304688 -7.640625 2.84375 -7.539062 2.53125 -7.34375 C 2.21875 -7.15625 2.0625 -6.890625 2.0625 -6.546875 C 2.0625 -6.316406 2.117188 -6.117188 2.234375 -5.953125 C 2.359375 -5.796875 2.550781 -5.644531 2.8125 -5.5 C 3.070312 -5.351562 3.570312 -5.144531 4.3125 -4.875 C 5.320312 -4.5 6.003906 -4.125 6.359375 -3.75 C 6.722656 -3.375 6.90625 -2.90625 6.90625 -2.34375 Z M 6.90625 -2.34375 "/></g></g></g><g fill="#ffffff" fill-opacity="1"><g transform="translate(140.310202, 277.765235)"><g><path d="M 4.140625 -0.921875 C 4.367188 -0.921875 4.585938 -0.9375 4.796875 -0.96875 C 5.015625 -1 5.1875 -1.035156 5.3125 -1.078125 L 5.3125 -0.078125 C 5.175781 -0.00390625 4.96875 0.0507812 4.6875 0.09375 C 4.414062 0.132812 4.171875 0.15625 3.953125 0.15625 C 2.296875 0.15625 1.46875 -0.71875 1.46875 -2.46875 L 1.46875 -7.5625 L 0.25 -7.5625 L 0.25 -8.1875 L 1.46875 -8.71875 L 2.015625 -10.546875 L 2.765625 -10.546875 L 2.765625 -8.5625 L 5.25 -8.5625 L 5.25 -7.5625 L 2.765625 -7.5625 L 2.765625 -2.515625 C 2.765625 -2.003906 2.882812 -1.609375 3.125 -1.328125 C 3.375 -1.054688 3.710938 -0.921875 4.140625 -0.921875 Z M 4.140625 -0.921875 "/></g></g></g><g fill="#ffffff" fill-opacity="1"><g transform="translate(145.957266, 277.765235)"><g><path d="M 8.765625 -4.296875 C 8.765625 -2.898438 8.410156 -1.804688 7.703125 -1.015625 C 7.003906 -0.234375 6.035156 0.15625 4.796875 0.15625 C 4.035156 0.15625 3.359375 -0.0195312 2.765625 -0.375 C 2.171875 -0.738281 1.710938 -1.253906 1.390625 -1.921875 C 1.066406 -2.597656 0.90625 -3.390625 0.90625 -4.296875 C 0.90625 -5.691406 1.253906 -6.773438 1.953125 -7.546875 C 2.648438 -8.328125 3.617188 -8.71875 4.859375 -8.71875 C 6.054688 -8.71875 7.003906 -8.316406 7.703125 -7.515625 C 8.410156 -6.722656 8.765625 -5.648438 8.765625 -4.296875 Z M 2.25 -4.296875 C 2.25 -3.203125 2.46875 -2.367188 2.90625 -1.796875 C 3.34375 -1.222656 3.984375 -0.9375 4.828125 -0.9375 C 5.679688 -0.9375 6.328125 -1.21875 6.765625 -1.78125 C 7.203125 -2.351562 7.421875 -3.191406 7.421875 -4.296875 C 7.421875 -5.378906 7.203125 -6.203125 6.765625 -6.765625 C 6.328125 -7.335938 5.675781 -7.625 4.8125 -7.625 C 3.96875 -7.625 3.328125 -7.34375 2.890625 -6.78125 C 2.460938 -6.226562 2.25 -5.398438 2.25 -4.296875 Z M 2.25 -4.296875 "/></g></g></g><g fill="#ffffff" fill-opacity="1"><g transform="translate(155.618974, 277.765235)"><g/></g></g><g fill="#ffffff" fill-opacity="1"><g transform="translate(159.774209, 277.765235)"><g><path d="M 7.203125 -1.15625 L 7.140625 -1.15625 C 6.535156 -0.28125 5.640625 0.15625 4.453125 0.15625 C 3.328125 0.15625 2.453125 -0.222656 1.828125 -0.984375 C 1.210938 -1.753906 0.90625 -2.847656 0.90625 -4.265625 C 0.90625 -5.671875 1.21875 -6.765625 1.84375 -7.546875 C 2.46875 -8.328125 3.335938 -8.71875 4.453125 -8.71875 C 5.609375 -8.71875 6.5 -8.296875 7.125 -7.453125 L 7.21875 -7.453125 L 7.171875 -8.078125 L 7.140625 -8.671875 L 7.140625 -12.15625 L 8.4375 -12.15625 L 8.4375 0 L 7.375 0 Z M 4.609375 -0.9375 C 5.492188 -0.9375 6.132812 -1.175781 6.53125 -1.65625 C 6.9375 -2.132812 7.140625 -2.910156 7.140625 -3.984375 L 7.140625 -4.265625 C 7.140625 -5.472656 6.9375 -6.335938 6.53125 -6.859375 C 6.125 -7.378906 5.476562 -7.640625 4.59375 -7.640625 C 3.832031 -7.640625 3.25 -7.34375 2.84375 -6.75 C 2.445312 -6.15625 2.25 -5.320312 2.25 -4.25 C 2.25 -3.15625 2.445312 -2.328125 2.84375 -1.765625 C 3.25 -1.210938 3.835938 -0.9375 4.609375 -0.9375 Z M 4.609375 -0.9375 "/></g></g></g><g fill="#ffffff" fill-opacity="1"><g transform="translate(169.576508, 277.765235)"><g><path d="M 5 0.15625 C 3.726562 0.15625 2.726562 -0.226562 2 -1 C 1.269531 -1.769531 0.90625 -2.84375 0.90625 -4.21875 C 0.90625 -5.59375 1.242188 -6.6875 1.921875 -7.5 C 2.597656 -8.3125 3.507812 -8.71875 4.65625 -8.71875 C 5.726562 -8.71875 6.578125 -8.363281 7.203125 -7.65625 C 7.828125 -6.957031 8.140625 -6.03125 8.140625 -4.875 L 8.140625 -4.046875 L 2.25 -4.046875 C 2.269531 -3.046875 2.519531 -2.285156 3 -1.765625 C 3.488281 -1.242188 4.171875 -0.984375 5.046875 -0.984375 C 5.960938 -0.984375 6.875 -1.175781 7.78125 -1.5625 L 7.78125 -0.40625 C 7.320312 -0.207031 6.882812 -0.0664062 6.46875 0.015625 C 6.0625 0.109375 5.570312 0.15625 5 0.15625 Z M 4.640625 -7.640625 C 3.953125 -7.640625 3.40625 -7.414062 3 -6.96875 C 2.59375 -6.519531 2.351562 -5.898438 2.28125 -5.109375 L 6.75 -5.109375 C 6.75 -5.921875 6.566406 -6.546875 6.203125 -6.984375 C 5.835938 -7.421875 5.316406 -7.640625 4.640625 -7.640625 Z M 4.640625 -7.640625 "/></g></g></g><g fill="#ffffff" fill-opacity="1"><g transform="translate(178.550884, 277.765235)"><g><path d="M 2.671875 0 L 1.375 0 L 1.375 -12.15625 L 2.671875 -12.15625 Z M 2.671875 0 "/></g></g></g><g fill="#ffffff" fill-opacity="1"><g transform="translate(182.596771, 277.765235)"><g/></g></g><g fill="#ffffff" fill-opacity="1"><g transform="translate(186.752006, 277.765235)"><g><path d="M 5.359375 0.15625 C 4.804688 0.15625 4.296875 0.0507812 3.828125 -0.15625 C 3.367188 -0.363281 2.984375 -0.679688 2.671875 -1.109375 L 2.578125 -1.109375 C 2.640625 -0.609375 2.671875 -0.128906 2.671875 0.328125 L 2.671875 3.84375 L 1.375 3.84375 L 1.375 -8.5625 L 2.4375 -8.5625 L 2.609375 -7.390625 L 2.671875 -7.390625 C 3.003906 -7.859375 3.390625 -8.195312 3.828125 -8.40625 C 4.273438 -8.613281 4.785156 -8.71875 5.359375 -8.71875 C 6.492188 -8.71875 7.367188 -8.328125 7.984375 -7.546875 C 8.609375 -6.773438 8.921875 -5.691406 8.921875 -4.296875 C 8.921875 -2.890625 8.601562 -1.796875 7.96875 -1.015625 C 7.34375 -0.234375 6.472656 0.15625 5.359375 0.15625 Z M 5.171875 -7.625 C 4.296875 -7.625 3.660156 -7.378906 3.265625 -6.890625 C 2.878906 -6.410156 2.679688 -5.640625 2.671875 -4.578125 L 2.671875 -4.296875 C 2.671875 -3.085938 2.867188 -2.222656 3.265625 -1.703125 C 3.671875 -1.191406 4.316406 -0.9375 5.203125 -0.9375 C 5.941406 -0.9375 6.519531 -1.234375 6.9375 -1.828125 C 7.363281 -2.429688 7.578125 -3.257812 7.578125 -4.3125 C 7.578125 -5.375 7.363281 -6.191406 6.9375 -6.765625 C 6.519531 -7.335938 5.929688 -7.625 5.171875 -7.625 Z M 5.171875 -7.625 "/></g></g></g><g fill="#ffffff" fill-opacity="1"><g transform="translate(196.554304, 277.765235)"><g><path d="M 6.640625 0 L 6.390625 -1.21875 L 6.328125 -1.21875 C 5.898438 -0.6875 5.472656 -0.320312 5.046875 -0.125 C 4.617188 0.0625 4.085938 0.15625 3.453125 0.15625 C 2.609375 0.15625 1.941406 -0.0625 1.453125 -0.5 C 0.972656 -0.9375 0.734375 -1.5625 0.734375 -2.375 C 0.734375 -4.101562 2.117188 -5.007812 4.890625 -5.09375 L 6.34375 -5.140625 L 6.34375 -5.671875 C 6.34375 -6.335938 6.195312 -6.832031 5.90625 -7.15625 C 5.613281 -7.476562 5.148438 -7.640625 4.515625 -7.640625 C 3.804688 -7.640625 3 -7.421875 2.09375 -6.984375 L 1.703125 -7.96875 C 2.117188 -8.195312 2.578125 -8.375 3.078125 -8.5 C 3.585938 -8.632812 4.09375 -8.703125 4.59375 -8.703125 C 5.613281 -8.703125 6.367188 -8.472656 6.859375 -8.015625 C 7.359375 -7.566406 7.609375 -6.84375 7.609375 -5.84375 L 7.609375 0 Z M 3.71875 -0.921875 C 4.519531 -0.921875 5.148438 -1.140625 5.609375 -1.578125 C 6.078125 -2.023438 6.3125 -2.644531 6.3125 -3.4375 L 6.3125 -4.21875 L 5.015625 -4.15625 C 3.984375 -4.125 3.238281 -3.960938 2.78125 -3.671875 C 2.320312 -3.390625 2.09375 -2.953125 2.09375 -2.359375 C 2.09375 -1.890625 2.234375 -1.53125 2.515625 -1.28125 C 2.804688 -1.039062 3.207031 -0.921875 3.71875 -0.921875 Z M 3.71875 -0.921875 "/></g></g></g><g fill="#ffffff" fill-opacity="1"><g transform="translate(205.450575, 277.765235)"><g><path d="M 5.28125 -8.71875 C 5.664062 -8.71875 6.007812 -8.6875 6.3125 -8.625 L 6.125 -7.421875 C 5.769531 -7.503906 5.457031 -7.546875 5.1875 -7.546875 C 4.5 -7.546875 3.90625 -7.265625 3.40625 -6.703125 C 2.914062 -6.140625 2.671875 -5.4375 2.671875 -4.59375 L 2.671875 0 L 1.375 0 L 1.375 -8.5625 L 2.453125 -8.5625 L 2.59375 -6.984375 L 2.65625 -6.984375 C 2.976562 -7.535156 3.363281 -7.960938 3.8125 -8.265625 C 4.257812 -8.566406 4.75 -8.71875 5.28125 -8.71875 Z M 5.28125 -8.71875 "/></g></g></g><g fill="#ffffff" fill-opacity="1"><g transform="translate(211.98023, 277.765235)"><g><path d="M 6.640625 0 L 6.390625 -1.21875 L 6.328125 -1.21875 C 5.898438 -0.6875 5.472656 -0.320312 5.046875 -0.125 C 4.617188 0.0625 4.085938 0.15625 3.453125 0.15625 C 2.609375 0.15625 1.941406 -0.0625 1.453125 -0.5 C 0.972656 -0.9375 0.734375 -1.5625 0.734375 -2.375 C 0.734375 -4.101562 2.117188 -5.007812 4.890625 -5.09375 L 6.34375 -5.140625 L 6.34375 -5.671875 C 6.34375 -6.335938 6.195312 -6.832031 5.90625 -7.15625 C 5.613281 -7.476562 5.148438 -7.640625 4.515625 -7.640625 C 3.804688 -7.640625 3 -7.421875 2.09375 -6.984375 L 1.703125 -7.96875 C 2.117188 -8.195312 2.578125 -8.375 3.078125 -8.5 C 3.585938 -8.632812 4.09375 -8.703125 4.59375 -8.703125 C 5.613281 -8.703125 6.367188 -8.472656 6.859375 -8.015625 C 7.359375 -7.566406 7.609375 -6.84375 7.609375 -5.84375 L 7.609375 0 Z M 3.71875 -0.921875 C 4.519531 -0.921875 5.148438 -1.140625 5.609375 -1.578125 C 6.078125 -2.023438 6.3125 -2.644531 6.3125 -3.4375 L 6.3125 -4.21875 L 5.015625 -4.15625 C 3.984375 -4.125 3.238281 -3.960938 2.78125 -3.671875 C 2.320312 -3.390625 2.09375 -2.953125 2.09375 -2.359375 C 2.09375 -1.890625 2.234375 -1.53125 2.515625 -1.28125 C 2.804688 -1.039062 3.207031 -0.921875 3.71875 -0.921875 Z M 3.71875 -0.921875 "/></g></g></g><g fill="#ffffff" fill-opacity="1"><g transform="translate(220.8765, 277.765235)"><g><path d="M 8.390625 -8.5625 L 8.390625 -7.75 L 6.796875 -7.5625 C 6.941406 -7.375 7.070312 -7.132812 7.1875 -6.84375 C 7.300781 -6.550781 7.359375 -6.21875 7.359375 -5.84375 C 7.359375 -5.007812 7.070312 -4.34375 6.5 -3.84375 C 5.925781 -3.34375 5.140625 -3.09375 4.140625 -3.09375 C 3.890625 -3.09375 3.648438 -3.113281 3.421875 -3.15625 C 2.867188 -2.863281 2.59375 -2.492188 2.59375 -2.046875 C 2.59375 -1.816406 2.6875 -1.644531 2.875 -1.53125 C 3.070312 -1.414062 3.40625 -1.359375 3.875 -1.359375 L 5.390625 -1.359375 C 6.316406 -1.359375 7.03125 -1.160156 7.53125 -0.765625 C 8.03125 -0.378906 8.28125 0.1875 8.28125 0.9375 C 8.28125 1.882812 7.898438 2.601562 7.140625 3.09375 C 6.378906 3.59375 5.269531 3.84375 3.8125 3.84375 C 2.6875 3.84375 1.820312 3.632812 1.21875 3.21875 C 0.613281 2.800781 0.3125 2.210938 0.3125 1.453125 C 0.3125 0.929688 0.476562 0.476562 0.8125 0.09375 C 1.144531 -0.28125 1.613281 -0.535156 2.21875 -0.671875 C 2 -0.773438 1.8125 -0.929688 1.65625 -1.140625 C 1.507812 -1.347656 1.4375 -1.585938 1.4375 -1.859375 C 1.4375 -2.171875 1.519531 -2.441406 1.6875 -2.671875 C 1.851562 -2.910156 2.117188 -3.140625 2.484375 -3.359375 C 2.035156 -3.546875 1.671875 -3.859375 1.390625 -4.296875 C 1.117188 -4.734375 0.984375 -5.234375 0.984375 -5.796875 C 0.984375 -6.734375 1.265625 -7.453125 1.828125 -7.953125 C 2.390625 -8.460938 3.1875 -8.71875 4.21875 -8.71875 C 4.664062 -8.71875 5.066406 -8.664062 5.421875 -8.5625 Z M 1.5625 1.4375 C 1.5625 1.90625 1.753906 2.257812 2.140625 2.5 C 2.535156 2.738281 3.097656 2.859375 3.828125 2.859375 C 4.910156 2.859375 5.710938 2.691406 6.234375 2.359375 C 6.765625 2.035156 7.03125 1.597656 7.03125 1.046875 C 7.03125 0.578125 6.882812 0.25 6.59375 0.0625 C 6.3125 -0.113281 5.773438 -0.203125 4.984375 -0.203125 L 3.421875 -0.203125 C 2.835938 -0.203125 2.378906 -0.0625 2.046875 0.21875 C 1.722656 0.507812 1.5625 0.914062 1.5625 1.4375 Z M 2.265625 -5.828125 C 2.265625 -5.222656 2.429688 -4.765625 2.765625 -4.453125 C 3.109375 -4.148438 3.582031 -4 4.1875 -4 C 5.445312 -4 6.078125 -4.613281 6.078125 -5.84375 C 6.078125 -7.132812 5.4375 -7.78125 4.15625 -7.78125 C 3.550781 -7.78125 3.082031 -7.613281 2.75 -7.28125 C 2.425781 -6.957031 2.265625 -6.472656 2.265625 -5.828125 Z M 2.265625 -5.828125 "/></g></g></g><g fill="#ffffff" fill-opacity="1"><g transform="translate(229.639984, 277.765235)"><g><path d="M 5.28125 -8.71875 C 5.664062 -8.71875 6.007812 -8.6875 6.3125 -8.625 L 6.125 -7.421875 C 5.769531 -7.503906 5.457031 -7.546875 5.1875 -7.546875 C 4.5 -7.546875 3.90625 -7.265625 3.40625 -6.703125 C 2.914062 -6.140625 2.671875 -5.4375 2.671875 -4.59375 L 2.671875 0 L 1.375 0 L 1.375 -8.5625 L 2.453125 -8.5625 L 2.59375 -6.984375 L 2.65625 -6.984375 C 2.976562 -7.535156 3.363281 -7.960938 3.8125 -8.265625 C 4.257812 -8.566406 4.75 -8.71875 5.28125 -8.71875 Z M 5.28125 -8.71875 "/></g></g></g><g fill="#ffffff" fill-opacity="1"><g transform="translate(236.169639, 277.765235)"><g><path d="M 6.640625 0 L 6.390625 -1.21875 L 6.328125 -1.21875 C 5.898438 -0.6875 5.472656 -0.320312 5.046875 -0.125 C 4.617188 0.0625 4.085938 0.15625 3.453125 0.15625 C 2.609375 0.15625 1.941406 -0.0625 1.453125 -0.5 C 0.972656 -0.9375 0.734375 -1.5625 0.734375 -2.375 C 0.734375 -4.101562 2.117188 -5.007812 4.890625 -5.09375 L 6.34375 -5.140625 L 6.34375 -5.671875 C 6.34375 -6.335938 6.195312 -6.832031 5.90625 -7.15625 C 5.613281 -7.476562 5.148438 -7.640625 4.515625 -7.640625 C 3.804688 -7.640625 3 -7.421875 2.09375 -6.984375 L 1.703125 -7.96875 C 2.117188 -8.195312 2.578125 -8.375 3.078125 -8.5 C 3.585938 -8.632812 4.09375 -8.703125 4.59375 -8.703125 C 5.613281 -8.703125 6.367188 -8.472656 6.859375 -8.015625 C 7.359375 -7.566406 7.609375 -6.84375 7.609375 -5.84375 L 7.609375 0 Z M 3.71875 -0.921875 C 4.519531 -0.921875 5.148438 -1.140625 5.609375 -1.578125 C 6.078125 -2.023438 6.3125 -2.644531 6.3125 -3.4375 L 6.3125 -4.21875 L 5.015625 -4.15625 C 3.984375 -4.125 3.238281 -3.960938 2.78125 -3.671875 C 2.320312 -3.390625 2.09375 -2.953125 2.09375 -2.359375 C 2.09375 -1.890625 2.234375 -1.53125 2.515625 -1.28125 C 2.804688 -1.039062 3.207031 -0.921875 3.71875 -0.921875 Z M 3.71875 -0.921875 "/></g></g></g><g fill="#ffffff" fill-opacity="1"><g transform="translate(245.065909, 277.765235)"><g><path d="M 5.234375 -7.5625 L 3.0625 -7.5625 L 3.0625 0 L 1.765625 0 L 1.765625 -7.5625 L 0.234375 -7.5625 L 0.234375 -8.140625 L 1.765625 -8.609375 L 1.765625 -9.09375 C 1.765625 -11.195312 2.679688 -12.25 4.515625 -12.25 C 4.972656 -12.25 5.503906 -12.15625 6.109375 -11.96875 L 5.78125 -10.9375 C 5.28125 -11.09375 4.851562 -11.171875 4.5 -11.171875 C 4.007812 -11.171875 3.644531 -11.007812 3.40625 -10.6875 C 3.175781 -10.363281 3.0625 -9.84375 3.0625 -9.125 L 3.0625 -8.5625 L 5.234375 -8.5625 Z M 5.234375 -7.5625 "/></g></g></g><g fill="#ffffff" fill-opacity="1"><g transform="translate(250.48646, 277.765235)"><g><path d="M 8.765625 -4.296875 C 8.765625 -2.898438 8.410156 -1.804688 7.703125 -1.015625 C 7.003906 -0.234375 6.035156 0.15625 4.796875 0.15625 C 4.035156 0.15625 3.359375 -0.0195312 2.765625 -0.375 C 2.171875 -0.738281 1.710938 -1.253906 1.390625 -1.921875 C 1.066406 -2.597656 0.90625 -3.390625 0.90625 -4.296875 C 0.90625 -5.691406 1.253906 -6.773438 1.953125 -7.546875 C 2.648438 -8.328125 3.617188 -8.71875 4.859375 -8.71875 C 6.054688 -8.71875 7.003906 -8.316406 7.703125 -7.515625 C 8.410156 -6.722656 8.765625 -5.648438 8.765625 -4.296875 Z M 2.25 -4.296875 C 2.25 -3.203125 2.46875 -2.367188 2.90625 -1.796875 C 3.34375 -1.222656 3.984375 -0.9375 4.828125 -0.9375 C 5.679688 -0.9375 6.328125 -1.21875 6.765625 -1.78125 C 7.203125 -2.351562 7.421875 -3.191406 7.421875 -4.296875 C 7.421875 -5.378906 7.203125 -6.203125 6.765625 -6.765625 C 6.328125 -7.335938 5.675781 -7.625 4.8125 -7.625 C 3.96875 -7.625 3.328125 -7.34375 2.890625 -6.78125 C 2.460938 -6.226562 2.25 -5.398438 2.25 -4.296875 Z M 2.25 -4.296875 "/></g></g></g></svg>